HIERARCHY
ROOT hip
{
	OFFSET 0.000000 0.000000 0.000000 
	CHANNELS 6 Xposition Yposition Zposition Xrotation Zrotation Yrotation
	JOINT abdomen
	{
		OFFSET 0.000000 3.402643 0.000000 
		CHANNELS 3 Xrotation Zrotation Yrotation
		JOINT chest
		{
			OFFSET 0.000000 8.438565 -0.680529 
			CHANNELS 3 Xrotation Zrotation Yrotation
			JOINT neck
			{
				OFFSET 0.000000 10.207942 -0.272212 
				CHANNELS 3 Xrotation Zrotation Yrotation
				JOINT head
				{
					OFFSET 0.000000 3.130431 0.000000 
					CHANNELS 3 Xrotation Zrotation Yrotation
					End Site
					{
						OFFSET 0.000000 3.130435 0.000000 
					}
				}
			}
			JOINT lCollar
			{
				OFFSET 3.470700 6.669187 -0.816635 
				CHANNELS 3 Yrotation Zrotation Xrotation
				JOINT lShldr
				{
					OFFSET 3.198488 0.000000 0.000000 
					CHANNELS 3 Zrotation Yrotation Xrotation
					JOINT lForeArm
					{
						OFFSET 10.139888 0.000000 0.000000 
						CHANNELS 3 Yrotation Zrotation Xrotation
						JOINT lHand
						{
							OFFSET 8.370511 0.000000 0.000000 
							CHANNELS 3 Zrotation Yrotation Xrotation
							End Site
							{
								OFFSET 4.083176 0.000000 0.000000 
							}
						}
					}
				}
			}
			JOINT rCollar
			{
				OFFSET -3.470700 6.669187 -0.816635 
				CHANNELS 3 Yrotation Zrotation Xrotation
				JOINT rShldr
				{
					OFFSET -3.198488 0.000000 0.000000 
					CHANNELS 3 Zrotation Yrotation Xrotation
					JOINT rForeArm
					{
						OFFSET -10.139888 0.000000 0.000000 
						CHANNELS 3 Yrotation Zrotation Xrotation
						JOINT rHand
						{
							OFFSET -8.370511 0.000000 0.000000 
							CHANNELS 3 Zrotation Yrotation Xrotation
							End Site
							{
								OFFSET -4.083176 0.000000 0.000000 
							}
						}
					}
				}
			}
		}
	}
	JOINT lThigh
	{
		OFFSET 5.308129 -1.633274 1.361059 
		CHANNELS 3 Xrotation Zrotation Yrotation
		JOINT lShin
		{
			OFFSET -2.041588 -20.007561 0.000000 
			CHANNELS 3 Xrotation Zrotation Yrotation
			JOINT lFoot
			{
				OFFSET 0.000000 -19.190928 -1.224953 
				CHANNELS 3 Xrotation Yrotation Zrotation
				End Site
				{
					OFFSET 0.000000 -2.449906 4.627600 
				}
			}
		}
	}
	JOINT rThigh
	{
		OFFSET -5.308129 -1.633274 1.361059 
		CHANNELS 3 Xrotation Zrotation Yrotation
		JOINT rShin
		{
			OFFSET 2.041588 -20.007561 0.000000 
			CHANNELS 3 Xrotation Zrotation Yrotation
			JOINT rFoot
			{
				OFFSET 0.000000 -19.190928 -1.224953 
				CHANNELS 3 Xrotation Yrotation Zrotation
				End Site
				{
					OFFSET 0.000000 -2.449906 4.627600 
				}
			}
		}
	}
}
MOTION
Frames: 10
Frame Time: 0.016667
-2.719533 44.575954 -7.551413 4.193665 -4.675005 4.862219 -17.392725 0.232978 -1.381571 25.953930 -1.967065 -0.664305 -3.594092 0.789460 0.067607 4.366285 5.560091 0.268455 1.993405 -2.003458 -0.008156 -75.884575 -12.485122 24.551804 -28.053211 -0.134168 -1.056343 -0.058594 0.000000 43.378910 -2.003062 1.991579 -0.506922 80.972237 -6.651326 8.160265 37.215576 -0.026578 -0.519378 0.045943 -0.031990 35.019535 -28.222645 9.401071 -2.093758 49.671040 1.926859 3.378126 -25.254103 6.662255 3.939439 -19.927837 -1.220687 0.909772 41.614143 -2.363392 -2.992422 -26.622498 -17.910458 -10.450310 
-2.438778 44.581081 -7.584812 4.281669 -4.645259 4.710754 -17.217039 0.298497 -1.606168 26.086208 -1.675344 -0.742165 -4.844330 0.885498 0.315590 3.944849 5.631244 0.397509 1.993405 -2.003458 -0.008156 -77.364723 -10.437114 19.465319 -27.369627 -0.124926 -1.054361 -0.051933 0.007141 43.007816 -2.003062 1.991579 -0.506922 80.649658 -8.830855 8.430020 36.610085 -0.034751 -0.521645 0.045949 -0.031994 35.009769 -28.526775 9.206386 -2.371686 50.142601 1.908373 3.415718 -24.808413 6.047385 3.591079 -20.219526 -1.747586 0.524703 41.859066 -2.359993 -2.995922 -25.851583 -17.431440 -9.956412 
-2.115173 44.568577 -7.629564 4.330597 -4.635224 4.404801 -16.992579 0.382911 -1.816229 26.239130 -1.419084 -0.816589 -5.918772 0.942217 0.585931 3.591830 5.672502 0.541222 1.993405 -2.003458 -0.008156 -78.861847 -8.306301 14.204185 -27.125517 -0.120726 -1.049367 -0.052120 0.007311 41.523441 -2.003062 1.991579 -0.506922 80.320679 -10.981542 8.257404 36.287834 -0.039688 -0.516052 0.045927 -0.031979 35.048832 -28.786919 9.022641 -2.570245 50.624508 1.881130 3.458549 -24.435028 5.598096 3.339888 -20.640566 -2.391842 0.003512 42.271210 -2.350234 -3.013040 -24.877941 -16.722218 -9.278277 
-1.744262 44.546570 -7.693448 4.438308 -4.624821 3.879297 -16.748646 0.476920 -1.950158 26.422703 -1.241904 -0.871001 -6.856515 0.998667 0.836973 3.287834 5.713299 0.679542 1.993405 -2.003458 -0.008156 -80.415413 -6.263765 9.362463 -27.232933 -0.127442 -1.054059 -0.056129 0.015228 38.769535 -2.003062 1.991579 -0.506922 79.989975 -12.896945 7.615018 36.063236 -0.037665 -0.516204 0.046020 -0.032044 34.882816 -29.044338 8.874735 -2.660085 51.185284 1.822625 3.484501 -24.183252 5.270625 3.122028 -21.277437 -3.153548 -0.702743 42.898697 -2.350398 -3.048720 -23.722418 -15.668964 -8.375269 
-1.329538 44.518810 -7.781426 4.536281 -4.624205 3.178064 -16.455891 0.561938 -2.060503 26.636070 -1.091186 -0.908650 -7.725951 1.064470 1.095855 2.993510 5.734404 0.807639 1.993405 -2.003458 -0.008156 -81.910362 -4.307072 5.395689 -27.623499 -0.128905 -1.059432 -0.051724 0.024115 34.599613 -2.003062 1.991579 -0.506922 79.633995 -14.302169 6.631064 35.701923 -0.042339 -0.510732 0.046293 -0.032233 34.394535 -29.306507 8.740140 -2.526367 51.715172 1.793175 3.504684 -23.856920 4.892740 2.903179 -22.006052 -4.071342 -1.480336 43.529636 -2.304761 -3.105828 -22.426380 -14.076147 -7.319709 
-0.880580 44.475048 -7.902992 4.575033 -4.555812 2.311215 -16.133753 0.609768 -2.168563 26.811073 -1.002344 -0.946071 -8.585753 1.158746 1.416896 2.689348 5.755415 0.983378 1.993405 -2.003458 -0.008156 -83.257111 -2.419693 2.433595 -28.355906 -0.137178 -1.061674 -0.054377 0.042664 29.101574 -2.003062 1.991579 -0.506922 79.248772 -14.935512 5.435822 34.959721 -0.049319 -0.513645 0.046663 -0.032483 33.740238 -29.568066 8.602701 -2.169557 52.346069 1.715205 3.556890 -23.602318 4.483644 2.683252 -22.936537 -5.165706 -2.256809 44.461536 -2.275379 -3.132802 -21.027660 -11.968041 -6.112051 
-0.408640 44.394520 -8.066833 4.593766 -4.419408 1.158485 -15.821178 0.591929 -2.208739 26.879063 -0.958186 -0.974018 -9.514011 1.252075 1.870306 2.335967 5.747206 1.201627 1.993405 -2.003458 -0.008156 -84.446548 -0.644523 0.283186 -29.029741 -0.155039 -1.068891 -0.074396 0.053779 23.388689 -2.003062 1.991579 -0.506922 78.864708 -14.670508 4.128347 33.621845 -0.058984 -0.511974 0.046963 -0.032681 33.212898 -29.836384 8.542544 -1.352813 53.159370 1.683651 3.576278 -23.472937 4.055418 2.493989 -24.262821 -6.336778 -2.747119 45.854473 -2.246092 -3.197577 -19.537918 -9.395245 -4.836237 
0.078565 44.261726 -8.273764 4.611937 -4.185670 -0.415995 -15.518429 0.592807 -2.088422 26.887924 -0.844875 -0.916761 -10.402813 1.229460 2.332954 1.972514 5.660728 1.425123 1.993405 -2.003458 -0.008156 -85.587227 0.878660 -1.357562 -29.303236 -0.163231 -1.065881 -0.075837 0.064784 18.613304 -2.003062 1.991579 -0.506922 78.420151 -13.481536 2.709720 31.707829 -0.071908 -0.506567 0.047153 -0.032805 32.880867 -30.190866 8.631380 -0.032621 54.183281 1.578108 3.658911 -23.452595 3.711490 2.341827 -25.950289 -7.478441 -2.652418 47.496834 -2.148412 -3.304411 -17.695110 -6.580073 -3.587421 
0.567931 44.065037 -8.521622 4.639055 -3.786420 -2.319358 -15.215681 0.593669 -1.831380 26.847540 -0.644769 -0.804963 -11.251892 1.043998 2.790394 1.638420 5.505575 1.632058 1.993405 -2.003458 -0.008156 -86.686462 2.077924 -2.608893 -29.137146 -0.153035 -1.069180 -0.077127 0.075380 15.234399 -2.003062 1.991579 -0.506922 77.927254 -11.433510 1.095487 29.539923 -0.091493 -0.498162 0.047169 -0.032816 32.851566 -30.623989 8.876776 1.863404 55.394501 1.433174 3.751751 -23.506302 3.365685 2.203300 -28.132828 -8.525040 -1.791362 49.557835 -2.060513 -3.391598 -15.757187 -3.893042 -2.546005 
1.035563 43.815201 -8.798775 4.704717 -3.221554 -4.347147 -14.922670 0.585050 -1.493797 26.758245 -0.313916 -0.646614 -12.071486 0.792626 3.238714 1.343703 5.330574 1.824441 1.993405 -2.003458 -0.008156 -87.580116 3.061254 -3.324956 -28.639160 -0.145181 -1.058449 -0.085003 0.095048 13.271515 -2.003062 1.991579 -0.506922 77.423759 -8.778738 -0.653374 27.430618 -0.112265 -0.491864 0.047147 -0.032801 32.890629 -31.225740 9.236500 4.386329 56.750195 1.333775 3.839364 -23.610596 2.990083 2.012548 -30.519594 -9.343467 -0.233682 51.569588 -1.962890 -3.470864 -14.042199 -1.371923 -1.818482 
